<mxfile host="drawio-plugin" modified="2024-10-08T18:31:01.375Z" agent="Mozilla/5.0 (Windows NT 10.0; Win64; x64) AppleWebKit/537.36 (KHTML, like Gecko) Chrome/122.0.0.0 Safari/537.36" etag="VXRG4l-VBmCFWHIsGyLd" version="22.1.22" type="embed">
  <diagram name="Page-1" id="Rxd45JZoh64sPUJfa_ve">
    <mxGraphModel dx="1144" dy="2362" grid="0" gridSize="10" guides="1" tooltips="1" connect="1" arrows="1" fold="1" page="0" pageScale="1" pageWidth="827" pageHeight="1169" background="#F7F7F7" math="0" shadow="0">
      <root>
        <mxCell id="0" />
        <mxCell id="1" parent="0" />
        <mxCell id="8laq0RoM2ey0Ij8nhhd4-25" value="Customer" style="shape=umlActor;verticalLabelPosition=bottom;verticalAlign=top;html=1;" parent="1" vertex="1">
          <mxGeometry x="62" y="-775" width="30" height="60" as="geometry" />
        </mxCell>
        <mxCell id="8laq0RoM2ey0Ij8nhhd4-28" value="Api action" style="swimlane;whiteSpace=wrap;html=1;" parent="1" vertex="1">
          <mxGeometry x="170" y="-920" width="500" height="350" as="geometry">
            <mxRectangle x="140" y="-50" width="190" height="30" as="alternateBounds" />
          </mxGeometry>
        </mxCell>
        <mxCell id="8laq0RoM2ey0Ij8nhhd4-34" value="Create user" style="ellipse;whiteSpace=wrap;html=1;fillColor=#a20025;fontColor=#ffffff;strokeColor=#6F0000;" parent="8laq0RoM2ey0Ij8nhhd4-28" vertex="1">
          <mxGeometry x="34" y="245" width="140" height="80" as="geometry" />
        </mxCell>
        <mxCell id="D7e3qFoikxUyCczRgADE-1" value="Authentification" style="ellipse;whiteSpace=wrap;html=1;fillColor=#a20025;fontColor=#ffffff;strokeColor=#6F0000;" parent="8laq0RoM2ey0Ij8nhhd4-28" vertex="1">
          <mxGeometry x="180" y="137" width="140" height="80" as="geometry" />
        </mxCell>
        <mxCell id="So2RxyJFiX-Kr2H5o5gi-2" value="&amp;lt;&amp;lt;include&amp;gt;&amp;gt;" style="html=1;verticalAlign=bottom;labelBackgroundColor=none;endArrow=open;endFill=0;dashed=1;rounded=0;exitX=1;exitY=0;exitDx=0;exitDy=0;" parent="8laq0RoM2ey0Ij8nhhd4-28" source="8laq0RoM2ey0Ij8nhhd4-34" target="D7e3qFoikxUyCczRgADE-1" edge="1">
          <mxGeometry width="160" relative="1" as="geometry">
            <mxPoint x="221" y="252" as="sourcePoint" />
            <mxPoint x="381" y="252" as="targetPoint" />
          </mxGeometry>
        </mxCell>
        <mxCell id="So2RxyJFiX-Kr2H5o5gi-3" value="Delete user" style="ellipse;whiteSpace=wrap;html=1;fillColor=#a20025;fontColor=#ffffff;strokeColor=#6F0000;" parent="8laq0RoM2ey0Ij8nhhd4-28" vertex="1">
          <mxGeometry x="334" y="245" width="140" height="80" as="geometry" />
        </mxCell>
        <mxCell id="So2RxyJFiX-Kr2H5o5gi-4" value="&amp;lt;&amp;lt;include&amp;gt;&amp;gt;" style="html=1;verticalAlign=bottom;labelBackgroundColor=none;endArrow=open;endFill=0;dashed=1;rounded=0;exitX=0;exitY=0;exitDx=0;exitDy=0;" parent="8laq0RoM2ey0Ij8nhhd4-28" source="So2RxyJFiX-Kr2H5o5gi-3" target="D7e3qFoikxUyCczRgADE-1" edge="1">
          <mxGeometry width="160" relative="1" as="geometry">
            <mxPoint x="463" y="252" as="sourcePoint" />
            <mxPoint x="442" y="205" as="targetPoint" />
          </mxGeometry>
        </mxCell>
        <mxCell id="So2RxyJFiX-Kr2H5o5gi-5" value="List user" style="ellipse;whiteSpace=wrap;html=1;fillColor=#a20025;fontColor=#ffffff;strokeColor=#6F0000;" parent="8laq0RoM2ey0Ij8nhhd4-28" vertex="1">
          <mxGeometry x="320" y="40" width="140" height="80" as="geometry" />
        </mxCell>
        <mxCell id="So2RxyJFiX-Kr2H5o5gi-6" value="&amp;lt;&amp;lt;include&amp;gt;&amp;gt;" style="html=1;verticalAlign=bottom;labelBackgroundColor=none;endArrow=open;endFill=0;dashed=1;rounded=0;exitX=0;exitY=1;exitDx=0;exitDy=0;entryX=1;entryY=0;entryDx=0;entryDy=0;" parent="8laq0RoM2ey0Ij8nhhd4-28" source="So2RxyJFiX-Kr2H5o5gi-5" target="D7e3qFoikxUyCczRgADE-1" edge="1">
          <mxGeometry width="160" relative="1" as="geometry">
            <mxPoint x="481" y="47" as="sourcePoint" />
            <mxPoint x="460" as="targetPoint" />
          </mxGeometry>
        </mxCell>
        <mxCell id="So2RxyJFiX-Kr2H5o5gi-7" value="List product" style="ellipse;whiteSpace=wrap;html=1;fillColor=#a20025;fontColor=#ffffff;strokeColor=#6F0000;" parent="8laq0RoM2ey0Ij8nhhd4-28" vertex="1">
          <mxGeometry x="45" y="40" width="140" height="80" as="geometry" />
        </mxCell>
        <mxCell id="So2RxyJFiX-Kr2H5o5gi-8" value="&amp;lt;&amp;lt;include&amp;gt;&amp;gt;" style="html=1;verticalAlign=bottom;labelBackgroundColor=none;endArrow=open;endFill=0;dashed=1;rounded=0;exitX=1;exitY=1;exitDx=0;exitDy=0;" parent="8laq0RoM2ey0Ij8nhhd4-28" source="So2RxyJFiX-Kr2H5o5gi-7" target="D7e3qFoikxUyCczRgADE-1" edge="1">
          <mxGeometry width="160" relative="1" as="geometry">
            <mxPoint x="193" y="53" as="sourcePoint" />
            <mxPoint x="172" y="6" as="targetPoint" />
          </mxGeometry>
        </mxCell>
        <mxCell id="So2RxyJFiX-Kr2H5o5gi-12" value="" style="endArrow=open;startArrow=none;endFill=0;startFill=0;endSize=8;html=1;verticalAlign=bottom;labelBackgroundColor=none;strokeWidth=1;rounded=0;exitX=1;exitY=0.3333333333333333;exitDx=0;exitDy=0;exitPerimeter=0;entryX=0;entryY=0.5;entryDx=0;entryDy=0;" parent="1" source="8laq0RoM2ey0Ij8nhhd4-25" target="So2RxyJFiX-Kr2H5o5gi-7" edge="1">
          <mxGeometry width="160" relative="1" as="geometry">
            <mxPoint x="122" y="-743.5" as="sourcePoint" />
            <mxPoint x="282" y="-743.5" as="targetPoint" />
          </mxGeometry>
        </mxCell>
        <mxCell id="So2RxyJFiX-Kr2H5o5gi-13" value="" style="endArrow=open;startArrow=none;endFill=0;startFill=0;endSize=8;html=1;verticalAlign=bottom;labelBackgroundColor=none;strokeWidth=1;rounded=0;exitX=1;exitY=0.3333333333333333;exitDx=0;exitDy=0;exitPerimeter=0;entryX=0;entryY=0.5;entryDx=0;entryDy=0;" parent="1" source="8laq0RoM2ey0Ij8nhhd4-25" target="So2RxyJFiX-Kr2H5o5gi-5" edge="1">
          <mxGeometry width="160" relative="1" as="geometry">
            <mxPoint x="160" y="-707" as="sourcePoint" />
            <mxPoint x="287" y="-804" as="targetPoint" />
          </mxGeometry>
        </mxCell>
        <mxCell id="So2RxyJFiX-Kr2H5o5gi-14" value="" style="endArrow=open;startArrow=none;endFill=0;startFill=0;endSize=8;html=1;verticalAlign=bottom;labelBackgroundColor=none;strokeWidth=1;rounded=0;exitX=1;exitY=0.3333333333333333;exitDx=0;exitDy=0;exitPerimeter=0;entryX=0;entryY=0;entryDx=0;entryDy=0;" parent="1" source="8laq0RoM2ey0Ij8nhhd4-25" target="So2RxyJFiX-Kr2H5o5gi-3" edge="1">
          <mxGeometry width="160" relative="1" as="geometry">
            <mxPoint x="120" y="-705" as="sourcePoint" />
            <mxPoint x="522" y="-802" as="targetPoint" />
          </mxGeometry>
        </mxCell>
        <mxCell id="So2RxyJFiX-Kr2H5o5gi-15" value="" style="endArrow=open;startArrow=none;endFill=0;startFill=0;endSize=8;html=1;verticalAlign=bottom;labelBackgroundColor=none;strokeWidth=1;rounded=0;entryX=0;entryY=0;entryDx=0;entryDy=0;exitX=1;exitY=0.3333333333333333;exitDx=0;exitDy=0;exitPerimeter=0;" parent="1" source="8laq0RoM2ey0Ij8nhhd4-25" target="8laq0RoM2ey0Ij8nhhd4-34" edge="1">
          <mxGeometry width="160" relative="1" as="geometry">
            <mxPoint x="104" y="-681" as="sourcePoint" />
            <mxPoint x="227" y="-703" as="targetPoint" />
          </mxGeometry>
        </mxCell>
      </root>
    </mxGraphModel>
  </diagram>
</mxfile>
